<mxfile host="app.diagrams.net" modified="2023-07-05T13:12:39.025Z" agent="Mozilla/5.0 (Windows NT 10.0; Win64; x64) AppleWebKit/537.36 (KHTML, like Gecko) Chrome/114.0.0.0 Safari/537.36 Edg/114.0.1823.58" etag="Em2ply5dl6cYQ5mfQout" version="21.3.3" type="github">
  <diagram id="prtHgNgQTEPvFCAcTncT" name="Page-1">
    <mxGraphModel dx="1194" dy="576" grid="1" gridSize="10" guides="1" tooltips="1" connect="1" arrows="1" fold="1" page="1" pageScale="1" pageWidth="827" pageHeight="1169" math="0" shadow="0">
      <root>
        <mxCell id="0" />
        <mxCell id="1" parent="0" />
        <mxCell id="uA-aJmESSk0AEYk4KQHF-15" style="edgeStyle=orthogonalEdgeStyle;rounded=0;orthogonalLoop=1;jettySize=auto;html=1;entryX=0.5;entryY=0;entryDx=0;entryDy=0;" edge="1" parent="1" source="uA-aJmESSk0AEYk4KQHF-1" target="uA-aJmESSk0AEYk4KQHF-5">
          <mxGeometry relative="1" as="geometry" />
        </mxCell>
        <mxCell id="uA-aJmESSk0AEYk4KQHF-16" style="edgeStyle=orthogonalEdgeStyle;rounded=0;orthogonalLoop=1;jettySize=auto;html=1;exitX=0.5;exitY=1;exitDx=0;exitDy=0;entryX=0.5;entryY=0;entryDx=0;entryDy=0;" edge="1" parent="1" source="uA-aJmESSk0AEYk4KQHF-1" target="uA-aJmESSk0AEYk4KQHF-6">
          <mxGeometry relative="1" as="geometry" />
        </mxCell>
        <mxCell id="uA-aJmESSk0AEYk4KQHF-17" style="edgeStyle=orthogonalEdgeStyle;rounded=0;orthogonalLoop=1;jettySize=auto;html=1;exitX=0.5;exitY=1;exitDx=0;exitDy=0;entryX=0.5;entryY=0;entryDx=0;entryDy=0;" edge="1" parent="1" source="uA-aJmESSk0AEYk4KQHF-1" target="uA-aJmESSk0AEYk4KQHF-7">
          <mxGeometry relative="1" as="geometry" />
        </mxCell>
        <mxCell id="uA-aJmESSk0AEYk4KQHF-18" style="edgeStyle=orthogonalEdgeStyle;rounded=0;orthogonalLoop=1;jettySize=auto;html=1;exitX=0.5;exitY=1;exitDx=0;exitDy=0;" edge="1" parent="1" source="uA-aJmESSk0AEYk4KQHF-1" target="uA-aJmESSk0AEYk4KQHF-8">
          <mxGeometry relative="1" as="geometry" />
        </mxCell>
        <mxCell id="uA-aJmESSk0AEYk4KQHF-19" style="edgeStyle=orthogonalEdgeStyle;rounded=0;orthogonalLoop=1;jettySize=auto;html=1;exitX=0.5;exitY=1;exitDx=0;exitDy=0;entryX=0.5;entryY=0;entryDx=0;entryDy=0;" edge="1" parent="1" source="uA-aJmESSk0AEYk4KQHF-1" target="uA-aJmESSk0AEYk4KQHF-4">
          <mxGeometry relative="1" as="geometry" />
        </mxCell>
        <mxCell id="uA-aJmESSk0AEYk4KQHF-1" value="&lt;font style=&quot;font-size: 24px;&quot;&gt;贯彻一条线&lt;/font&gt;" style="rounded=0;whiteSpace=wrap;html=1;" vertex="1" parent="1">
          <mxGeometry x="135" y="100" width="150" height="50" as="geometry" />
        </mxCell>
        <mxCell id="uA-aJmESSk0AEYk4KQHF-20" style="edgeStyle=orthogonalEdgeStyle;rounded=0;orthogonalLoop=1;jettySize=auto;html=1;exitX=0.5;exitY=1;exitDx=0;exitDy=0;entryX=0.5;entryY=0;entryDx=0;entryDy=0;" edge="1" parent="1" source="uA-aJmESSk0AEYk4KQHF-2" target="uA-aJmESSk0AEYk4KQHF-9">
          <mxGeometry relative="1" as="geometry" />
        </mxCell>
        <mxCell id="uA-aJmESSk0AEYk4KQHF-21" style="edgeStyle=orthogonalEdgeStyle;rounded=0;orthogonalLoop=1;jettySize=auto;html=1;exitX=0.5;exitY=1;exitDx=0;exitDy=0;entryX=0.5;entryY=0;entryDx=0;entryDy=0;" edge="1" parent="1" source="uA-aJmESSk0AEYk4KQHF-2" target="uA-aJmESSk0AEYk4KQHF-10">
          <mxGeometry relative="1" as="geometry" />
        </mxCell>
        <mxCell id="uA-aJmESSk0AEYk4KQHF-2" value="&lt;font style=&quot;font-size: 24px;&quot;&gt;抓好两部门&lt;/font&gt;" style="rounded=0;whiteSpace=wrap;html=1;" vertex="1" parent="1">
          <mxGeometry x="410" y="100" width="150" height="50" as="geometry" />
        </mxCell>
        <mxCell id="uA-aJmESSk0AEYk4KQHF-22" style="edgeStyle=orthogonalEdgeStyle;rounded=0;orthogonalLoop=1;jettySize=auto;html=1;exitX=0.5;exitY=1;exitDx=0;exitDy=0;entryX=0.5;entryY=0;entryDx=0;entryDy=0;" edge="1" parent="1" source="uA-aJmESSk0AEYk4KQHF-3" target="uA-aJmESSk0AEYk4KQHF-11">
          <mxGeometry relative="1" as="geometry" />
        </mxCell>
        <mxCell id="uA-aJmESSk0AEYk4KQHF-23" style="edgeStyle=orthogonalEdgeStyle;rounded=0;orthogonalLoop=1;jettySize=auto;html=1;exitX=0.5;exitY=1;exitDx=0;exitDy=0;entryX=0.5;entryY=0;entryDx=0;entryDy=0;" edge="1" parent="1" source="uA-aJmESSk0AEYk4KQHF-3" target="uA-aJmESSk0AEYk4KQHF-12">
          <mxGeometry relative="1" as="geometry" />
        </mxCell>
        <mxCell id="uA-aJmESSk0AEYk4KQHF-24" style="edgeStyle=orthogonalEdgeStyle;rounded=0;orthogonalLoop=1;jettySize=auto;html=1;exitX=0.5;exitY=1;exitDx=0;exitDy=0;entryX=0.5;entryY=0;entryDx=0;entryDy=0;" edge="1" parent="1" source="uA-aJmESSk0AEYk4KQHF-3" target="uA-aJmESSk0AEYk4KQHF-13">
          <mxGeometry relative="1" as="geometry" />
        </mxCell>
        <mxCell id="uA-aJmESSk0AEYk4KQHF-3" value="&lt;font style=&quot;font-size: 24px;&quot;&gt;做到三结合&lt;/font&gt;" style="rounded=0;whiteSpace=wrap;html=1;" vertex="1" parent="1">
          <mxGeometry x="670" y="100" width="150" height="50" as="geometry" />
        </mxCell>
        <mxCell id="uA-aJmESSk0AEYk4KQHF-4" value="&lt;font style=&quot;font-size: 20px;&quot;&gt;党支部&lt;/font&gt;" style="rounded=0;whiteSpace=wrap;html=1;" vertex="1" parent="1">
          <mxGeometry x="70" y="230" width="40" height="110" as="geometry" />
        </mxCell>
        <mxCell id="uA-aJmESSk0AEYk4KQHF-5" value="&lt;font style=&quot;font-size: 20px;&quot;&gt;各部门&lt;/font&gt;" style="rounded=0;whiteSpace=wrap;html=1;" vertex="1" parent="1">
          <mxGeometry x="130" y="230" width="40" height="110" as="geometry" />
        </mxCell>
        <mxCell id="uA-aJmESSk0AEYk4KQHF-6" value="&lt;font style=&quot;font-size: 20px;&quot;&gt;教研组&lt;/font&gt;" style="rounded=0;whiteSpace=wrap;html=1;" vertex="1" parent="1">
          <mxGeometry x="190" y="230" width="40" height="110" as="geometry" />
        </mxCell>
        <mxCell id="uA-aJmESSk0AEYk4KQHF-7" value="&lt;font style=&quot;font-size: 20px;&quot;&gt;年级组&lt;/font&gt;" style="rounded=0;whiteSpace=wrap;html=1;" vertex="1" parent="1">
          <mxGeometry x="250" y="230" width="40" height="110" as="geometry" />
        </mxCell>
        <mxCell id="uA-aJmESSk0AEYk4KQHF-8" value="&lt;font style=&quot;font-size: 20px;&quot;&gt;师生&lt;/font&gt;" style="rounded=0;whiteSpace=wrap;html=1;" vertex="1" parent="1">
          <mxGeometry x="310" y="230" width="40" height="110" as="geometry" />
        </mxCell>
        <mxCell id="uA-aJmESSk0AEYk4KQHF-9" value="&lt;font style=&quot;font-size: 20px;&quot;&gt;课程中心&lt;/font&gt;" style="rounded=0;whiteSpace=wrap;html=1;" vertex="1" parent="1">
          <mxGeometry x="414" y="230" width="40" height="110" as="geometry" />
        </mxCell>
        <mxCell id="uA-aJmESSk0AEYk4KQHF-10" value="&lt;font style=&quot;font-size: 20px;&quot;&gt;学生中心&lt;/font&gt;" style="rounded=0;whiteSpace=wrap;html=1;" vertex="1" parent="1">
          <mxGeometry x="510" y="230" width="40" height="110" as="geometry" />
        </mxCell>
        <mxCell id="uA-aJmESSk0AEYk4KQHF-11" value="&lt;font style=&quot;font-size: 20px;&quot;&gt;教育教学相结合&lt;/font&gt;" style="rounded=0;whiteSpace=wrap;html=1;" vertex="1" parent="1">
          <mxGeometry x="660" y="230" width="40" height="180" as="geometry" />
        </mxCell>
        <mxCell id="uA-aJmESSk0AEYk4KQHF-12" value="&lt;font style=&quot;font-size: 20px;&quot;&gt;校内校外相结合&lt;/font&gt;" style="rounded=0;whiteSpace=wrap;html=1;" vertex="1" parent="1">
          <mxGeometry x="725" y="230" width="40" height="180" as="geometry" />
        </mxCell>
        <mxCell id="uA-aJmESSk0AEYk4KQHF-13" value="&lt;font style=&quot;font-size: 20px;&quot;&gt;推进评价相结合&lt;/font&gt;" style="rounded=0;whiteSpace=wrap;html=1;" vertex="1" parent="1">
          <mxGeometry x="790" y="230" width="40" height="180" as="geometry" />
        </mxCell>
        <mxCell id="uA-aJmESSk0AEYk4KQHF-25" value="" style="shape=flexArrow;endArrow=classic;startArrow=classic;html=1;rounded=0;" edge="1" parent="1">
          <mxGeometry width="100" height="100" relative="1" as="geometry">
            <mxPoint x="300" y="124.5" as="sourcePoint" />
            <mxPoint x="390" y="124.5" as="targetPoint" />
            <Array as="points">
              <mxPoint x="350" y="124.5" />
            </Array>
          </mxGeometry>
        </mxCell>
        <mxCell id="uA-aJmESSk0AEYk4KQHF-26" value="" style="shape=flexArrow;endArrow=classic;startArrow=classic;html=1;rounded=0;" edge="1" parent="1">
          <mxGeometry width="100" height="100" relative="1" as="geometry">
            <mxPoint x="570" y="124.5" as="sourcePoint" />
            <mxPoint x="660" y="124.5" as="targetPoint" />
            <Array as="points">
              <mxPoint x="620" y="124.5" />
            </Array>
          </mxGeometry>
        </mxCell>
      </root>
    </mxGraphModel>
  </diagram>
</mxfile>
